<svg width="153" height="23" viewBox="0 0 153 23" fill="none" xmlns="http://www.w3.org/2000/svg">
<g clip-path="url(#clip0_114_70)">
<path d="M16.1064 9.51312C15.4519 8.74979 14.9165 8.2383 14.9165 8.2383C15.1914 9.08342 15.2072 10.2622 15.2072 10.3907C15.2088 10.6542 14.8848 13.8893 13.463 12.8858C12.5178 12.2185 12.3923 10.3777 12.4145 9.22103C12.4352 8.15652 12.2731 7.0933 11.9332 6.06514C10.1603 0.698425 6.25873 0 6.25873 0C8.68133 1.82136 7.32467 5.06942 6.48431 6.36372C6.06492 7.00892 5.1213 8.14224 3.99658 9.18858C1.70743 11.3176 -0.175051 13.7387 0.0124024 16.4857C0.0616486 17.1945 0.244336 17.8475 0.590648 18.4317C1.59305 20.5451 3.83931 22.1899 6.64158 22.8299C4.54941 21.2942 1.37382 17.6463 7.08162 11.9291C7.20076 11.8096 7.4597 11.8849 7.42317 12.029C7.15946 13.0689 7.14834 15.1369 10.254 16.9401C13.6425 18.9081 12.0332 21.7992 10.9355 23C14.6322 22.4677 17.5488 20.2232 18.2875 17.3633C18.3066 17.275 18.3256 17.1854 18.3415 17.0971C18.8419 14.4346 17.9984 11.72 16.1064 9.51312Z" fill="#FF246E"/>
</g>
<path d="M39.7515 6.56836V18.8555H37.2378V15.9551H35.2515V13.9512H37.2378V12.5098H35.2515V10.4883H37.2378V6.56836H39.7515ZM35.0405 8.18555V10.1543H26.146V8.18555H29.4507V6.5332H31.9819V8.18555H35.0405ZM30.6812 10.6113C32.9136 10.6113 34.5483 11.9648 34.5659 13.8105C34.5483 15.6914 32.9136 17.0098 30.6812 17.0098C28.5015 17.0098 26.8667 15.6914 26.8667 13.8105C26.8667 11.9648 28.5015 10.6113 30.6812 10.6113ZM30.6812 12.5801C29.8374 12.5801 29.2222 13.002 29.2222 13.8105C29.2222 14.6719 29.8374 15.0938 30.6812 15.0938C31.5425 15.0938 32.1753 14.6719 32.1753 13.8105C32.1753 13.002 31.5425 12.5801 30.6812 12.5801ZM40.0854 20.4023V22.4238H28.9233V17.8184H31.4897V20.4023H40.0854ZM55.3503 6.55078V22.6875H52.9245V14.707H51.8171V21.9668H49.4265V17.4668L48.2136 19.084C46.7722 18.3281 45.8493 17.0801 45.278 15.5332C44.7595 17.3262 43.8454 18.7939 42.3601 19.6816L40.8132 17.7305C43.2917 16.3242 43.9772 13.4238 43.9772 10.418V10.1543H41.4108V8.15039H48.7585V10.1543H46.4558V10.418C46.4558 13.1074 47.1149 15.7178 49.4265 17.0449V6.76172H51.8171V12.668H52.9245V6.55078H55.3503ZM69.4269 8.00977V9.99609H59.8644V8.00977H63.38V6.49805H65.9112V8.00977H69.4269ZM64.6456 10.418C67.0011 10.4355 68.6534 11.666 68.6534 13.4238C68.6534 15.1992 67.0011 16.4297 64.6456 16.4297C62.3077 16.4297 60.6026 15.1992 60.6202 13.4238C60.6026 11.666 62.3077 10.4355 64.6456 10.418ZM64.6456 12.334C63.714 12.334 63.0812 12.6855 63.0812 13.4238C63.0812 14.1797 63.714 14.4961 64.6456 14.4961C65.5948 14.4961 66.2452 14.1797 66.2452 13.4238C66.2452 12.6855 65.5948 12.334 64.6456 12.334ZM72.7315 6.55078V10.752H74.8233V12.8438H72.7315V17.8535H70.2003V6.55078H72.7315ZM68.7237 17.2031C68.7237 18.6797 70.1124 20.2793 73.7511 20.7188L72.8546 22.5996C70.253 22.292 68.4601 21.3252 67.4757 19.9805C66.5089 21.3252 64.7423 22.292 62.1495 22.5996L61.253 20.7188C64.8214 20.2793 66.2101 18.6797 66.2101 17.2031V16.9746H68.7237V17.2031ZM87.8382 6.56836V11.4023H89.93V13.459H87.8382V18.6094H85.3069V6.56836H87.8382ZM84.5335 8.18555V10.1543H74.971V8.18555H78.4866V6.55078H81.0179V8.18555H84.5335ZM79.7522 10.6113C82.1077 10.6113 83.7601 11.8945 83.7601 13.7754C83.7601 15.6387 82.1077 16.8867 79.7522 16.8867C77.3968 16.8867 75.7093 15.6387 75.7269 13.7754C75.7093 11.8945 77.3968 10.6113 79.7522 10.6113ZM79.7522 12.5449C78.8206 12.5449 78.1878 12.9668 78.1878 13.7754C78.1878 14.584 78.8206 14.9707 79.7522 14.9883C80.7015 14.9707 81.3519 14.584 81.3519 13.7754C81.3519 12.9668 80.7015 12.5449 79.7522 12.5449ZM88.3655 20.4023V22.4238H77.2562V17.6777H79.7874V20.4023H88.3655ZM107.698 6.55078V22.6875H105.272V14.6895H104.077V21.9668H101.686V6.76172H104.077V12.6328H105.272V6.55078H107.698ZM100.561 8.16797V18.7148H94.0749V8.16797H100.561ZM96.448 10.1367V16.7461H98.2058V10.1367H96.448ZM123.49 12.8262V14.8125H117.373V15.6562H121.732V19.9629H112.943V20.7012H122.119V22.5996H110.447V18.1875H119.219V17.5547H110.447V15.6562H114.824V14.8125H108.777V12.8262H123.49ZM121.644 7.00781V12.1406H110.57V7.00781H121.644ZM113.049 8.95898V10.207H119.113V8.95898H113.049Z" fill="#FF0056" fill-opacity="0.86"/>
<defs>
<clipPath id="clip0_114_70">
<rect width="18.4832" height="23" fill="white"/>
</clipPath>
</defs>
</svg>
