<svg width="216" height="89" viewBox="0 0 216 89" fill="none" xmlns="http://www.w3.org/2000/svg">
<path d="M43.2873 14.5639C45.3653 13.4128 46.7643 11.2657 46.7643 8.80597C46.7643 5.13025 43.6462 2.15169 39.7983 2.15169C38.8357 2.15169 37.9192 2.33699 37.0851 2.67514C35.817 1.05153 33.79 0 31.5035 0C28.9746 0 26.7609 1.28777 25.5413 3.21249C24.4551 2.54312 23.1627 2.15401 21.7734 2.15401C17.9255 2.15401 14.8074 5.13257 14.8074 8.80828C14.8074 11.4533 16.4222 13.737 18.7596 14.8094C12.8192 18.6009 8.91064 25.0259 8.91064 32.3148C8.91064 43.9696 18.859 60.977 31.1786 60.977C43.4983 60.977 53.5242 43.9696 53.5242 32.3148C53.5266 24.8661 49.4459 18.3207 43.2873 14.5639ZM31.1811 49.3245C21.3879 49.3245 13.4496 41.6928 13.4496 32.28C13.4496 22.8673 21.3879 15.2356 31.1811 15.2356C36.8887 15.2356 41.9635 17.8273 45.2077 21.8528L42.1405 27.2285C40.1523 23.4301 36.011 20.8175 31.2223 20.8175C24.4987 20.8175 19.0481 25.9639 19.0481 32.3125C19.0481 38.661 24.4987 43.8075 31.2223 43.8075C36.2728 43.8075 39.2745 41.9546 42.1817 37.2736C42.6618 36.5001 43.3964 35.2262 43.862 34.4433L48.0518 27.0108C48.6119 28.6692 48.915 30.4387 48.915 32.2777C48.9125 41.6928 40.9742 49.3245 31.1811 49.3245ZM38.1689 32.3125C38.1689 35.9859 35.0532 38.9621 31.2077 38.9621C27.3622 38.9621 24.2466 35.9859 24.2466 32.3125C24.2466 28.6391 27.3622 25.6628 31.2077 25.6628C35.0532 25.6628 38.1689 28.6414 38.1689 32.3125Z" fill="#E72D6C"/>
<path d="M205.781 21.5939C202.101 18.9564 199.124 13.8472 203.123 12.3057C205.144 11.5269 208.046 13.7511 208.844 16.7825C209.447 13.693 211.742 11.0889 214.565 12.3057C217.816 14.2864 214.956 19.3124 211.798 21.3475C211.879 21.8105 211.934 22.3354 211.959 22.9291C212.157 27.6834 212.197 39.7304 211.92 45.774C211.801 48.3526 210.811 49.9642 208.83 49.9642C206.85 49.9642 205.741 48.4735 205.82 45.774C205.979 37.7158 205.899 29.6576 205.781 21.5995C205.781 21.5976 205.781 21.5957 205.781 21.5939Z" fill="#E72D6C"/>
<path d="M150.017 50.9715C148.868 50.9715 148.274 50.5283 148.155 49.6016C147.957 47.7885 147.957 45.1293 148.076 42.7522C148.116 41.5837 148.67 41.2614 149.898 41.2614L168.117 41.3017C168.791 41.3017 168.91 41.1405 168.91 40.7779V40.2944C168.91 39.9721 168.751 39.9318 168.276 39.9318C163.959 39.8109 156.433 39.8512 151.007 40.0124C149.225 40.0527 147.561 39.8109 147.561 38.0784C147.561 36.3862 148.631 35.9027 150.769 35.8624C156.671 35.7013 166.216 35.7013 171.405 36.0236C174.058 36.1445 174.494 36.5474 174.573 38.1993C174.653 39.8109 174.573 41.624 174.415 43.1551C174.217 44.807 173.742 45.0488 171.92 45.1293C166.969 45.3711 157.344 45.3711 153.463 45.2502C153.265 45.2502 153.106 45.3308 153.106 45.5725V46.3783C153.106 46.6604 153.304 46.7813 153.7 46.7813C158.136 46.8215 167.999 46.7813 172.87 46.741C175.167 46.741 175.564 47.7482 175.564 48.7152C175.564 49.7225 174.89 50.6895 173.147 50.7701C166.652 51.0521 157.582 51.0118 150.017 50.9715Z" fill="#E72D6C"/>
<path d="M143.838 32.1154C143.838 30.7455 144.71 29.7785 147.244 29.8591C153.938 30.0203 168.553 29.98 174.455 29.7785C177.148 29.6979 177.9 30.5843 177.9 32.0348C177.9 33.5659 176.831 34.1702 174.811 34.2105C169.464 34.3314 154.136 34.2508 147.007 34.1702C144.908 34.1299 143.838 33.7673 143.838 32.1154Z" fill="#E72D6C"/>
<path fill-rule="evenodd" clip-rule="evenodd" d="M147.046 26.1926C147.046 25.0242 147.839 24.1781 149.66 24.1781H152.354V23.332C152.354 22.2844 152.948 21.5189 153.78 21.116C153.122 21.0974 152.498 21.0874 151.916 21.078C151.235 21.0671 150.611 21.0571 150.057 21.0354C148.393 20.9951 147.442 20.3102 147.442 19.0611C147.442 17.8927 148.393 16.966 150.096 16.966C152.612 16.966 156.617 16.9856 160.683 17.0054C164.872 17.0258 169.126 17.0466 171.88 17.0466C173.583 17.0466 174.296 18.0136 174.296 19.1417C174.296 20.2296 173.623 21.0354 171.92 21.0757C170.85 21.116 169.583 21.116 168.197 21.116C168.91 21.5189 169.464 22.2844 169.464 23.3723V24.2587H171.999C173.979 24.2587 174.692 25.0242 174.692 26.2329C174.692 27.4819 174.019 28.2072 172.038 28.2475C166.85 28.328 154.77 28.2877 149.542 28.2072C147.839 28.1669 147.046 27.4416 147.046 26.1926ZM156.909 21.116C157.621 21.5189 158.176 22.2441 158.176 23.3723V24.2184H163.642V23.332C163.642 22.3247 164.196 21.5592 164.988 21.1563C162.335 21.1563 159.523 21.1563 156.909 21.116Z" fill="#E72D6C"/>
<path d="M72.2347 41.9464C72.2743 44.4847 73.2645 45.3308 76.8291 45.5725C80.7502 45.8546 85.6219 45.6934 89.6618 45.3711C91.8006 45.2099 92.9492 44.3235 92.8304 42.5104C92.7116 40.7376 91.7214 39.6095 89.1865 39.8109C85.7407 40.093 81.5424 40.0527 79.6808 39.9318C78.4926 39.8512 78.2946 39.7304 78.255 38.6022C78.1361 35.7819 78.0965 30.7455 78.2154 26.3135C78.2154 25.7091 78.3738 25.5077 79.0471 25.5077C80.3541 25.4271 86.216 25.3868 88.5924 25.4674C91.0085 25.548 91.6818 24.3392 91.6818 23.0499C91.6818 21.2368 90.8896 20.3504 88.7905 20.2699C86.2556 20.1893 77.7005 20.2699 75.2052 20.431C73.0664 20.5519 72.0762 21.3577 72.0366 23.1305C71.9447 29.0507 72.0424 33.3082 72.1463 37.8411C72.1767 39.1696 72.2077 40.5218 72.2347 41.9464Z" fill="#E72D6C"/>
<path d="M98.3842 17.2302C96.4434 17.2302 96.1574 19.3835 96.2762 21.5995C96.314 22.2332 96.3877 22.9128 96.4589 23.5683C96.537 24.2879 96.6119 24.9787 96.6327 25.548C96.7911 29.2547 96.8307 38.7231 96.5931 45.774C96.5139 48.4735 97.6229 49.9642 99.6032 49.9642C101.584 49.9642 102.574 48.3526 102.693 45.774C102.97 39.7304 102.93 27.4819 102.574 22.9291C102.296 19.182 100.167 17.2302 98.3842 17.2302Z" fill="#E72D6C"/>
<path fill-rule="evenodd" clip-rule="evenodd" d="M108.472 41.9464C108.512 44.4847 109.502 45.3308 113.067 45.5725C116.235 45.8143 119.879 45.8143 123.048 45.5725C126.612 45.3308 127.602 44.4847 127.642 41.9464C127.655 41.2809 127.668 40.6195 127.681 39.9618L127.681 39.9605C127.79 34.4069 127.894 29.1193 127.682 23.896C127.563 21.3577 126.612 20.5519 124.473 20.431C120.513 20.2296 115.601 20.3102 111.443 20.431C109.304 20.5116 108.314 21.3577 108.274 23.1305C108.182 29.0506 108.28 33.3081 108.384 37.8409C108.414 39.1694 108.445 40.5217 108.472 41.9464ZM114.374 38.7231C114.334 35.9027 114.294 30.6246 114.334 26.1926C114.334 25.5883 114.492 25.4271 115.166 25.3868C116.473 25.3465 119.285 25.3062 120.75 25.3868C121.424 25.4271 121.542 25.5883 121.582 26.1926C121.82 30.3023 121.859 35.9027 121.741 38.7231C121.701 39.8512 121.503 39.9721 120.315 40.0527C119.324 40.1333 116.869 40.1333 115.799 40.0527C114.611 39.9721 114.374 39.8512 114.374 38.7231Z" fill="#E72D6C"/>
<path d="M135.405 18.1747C133.464 18.1747 132.712 19.3835 132.831 21.5995C132.891 22.6084 132.928 23.7334 132.96 24.6926L132.96 24.6959C132.97 24.9995 132.979 25.2866 132.989 25.548C133.147 29.2547 133.227 38.7231 132.989 45.774C132.91 48.4735 134.058 49.9642 136.039 49.9642C138.019 49.9642 139.009 48.3526 139.128 45.774C139.405 39.7304 139.366 27.4819 139.009 22.9291C138.732 19.182 137.187 18.1747 135.405 18.1747Z" fill="#E72D6C"/>
<path d="M181.541 42.3493C181.66 44.8876 182.571 45.7337 186.136 45.9754C190.057 46.2575 195.285 46.0963 199.325 45.774C201.464 45.6128 202.533 44.7264 202.493 42.9133C202.454 41.1405 201.384 40.093 198.849 40.2944C195.404 40.5765 190.849 40.5362 188.987 40.4153C187.799 40.3347 187.561 40.2138 187.561 39.0857C187.561 38.6474 187.552 38.1501 187.542 37.6472L187.542 37.6457C187.532 37.132 187.522 36.6125 187.522 36.1445C187.522 35.5401 187.68 35.3386 188.354 35.3386C189.661 35.3386 194.493 35.3387 197.067 35.2178C199.483 35.0969 200.117 34.0896 200.156 32.8003C200.275 29.9397 200.236 26.797 200.038 23.7349C199.879 21.1966 198.929 20.6728 195.364 20.3907C190.215 19.9878 188.552 20.1087 184.512 20.431C182.373 20.5922 181.343 21.0354 181.343 22.8082C181.343 24.581 182.452 25.7494 184.987 25.548C188.433 25.2659 191.205 25.2659 192.631 25.3868C193.819 25.4674 193.978 25.5883 194.057 26.515C194.097 27.3208 194.097 28.4086 194.057 29.4965C194.057 30.0203 193.899 30.1411 193.344 30.1411C190.096 30.1411 186.096 30.262 184.512 30.3426C182.373 30.4635 181.383 31.2693 181.343 33.0421C181.303 35.2984 181.422 39.6498 181.541 42.3493Z" fill="#E72D6C"/>
</svg>
