<svg width="37" height="37" viewBox="0 0 37 37" fill="none" xmlns="http://www.w3.org/2000/svg">
<path d="M13.8753 26.2083V26.2083C13.8753 28.7627 15.946 30.8333 18.5003 30.8333V30.8333C21.0546 30.8333 23.1253 28.7627 23.1253 26.2083V26.2083M9.25033 13.875V19.0974C9.25033 19.7184 9.10575 20.3308 8.82803 20.8862L6.31171 25.9189C6.24522 26.0519 6.34192 26.2083 6.4906 26.2083H30.5101C30.6587 26.2083 30.7554 26.0519 30.6889 25.9189L28.1726 20.8862C27.8949 20.3308 27.7503 19.7184 27.7503 19.0974V13.875C27.7503 8.76637 23.609 4.625 18.5003 4.625V4.625C13.3917 4.625 9.25033 8.76637 9.25033 13.875Z" stroke="#E72D6C" stroke-width="2.5" stroke-linejoin="round"/>
</svg>
